# xmcd
#
# Track frame offsets: 
#        150
#        14325
#        31215
#        43330
#        56062
#        64672
#        76272
#        91915
#        104997
#        118552
#        130237
#        142890
#        153172
#        164135
#        177067
#        186950
#        200622
#        212397
#        225310
#        236535
#        249080
#        259775
#        274840
#        286000
#        297852
#        309590
#        322515
#        336430
#        347137
#
# Disc length: 4796 seconds
#
# Revision: 0
# Processed by: cddbd v1.5.2PL0 Copyright (c) Steve Scherf et al.
# Submitted via: ExactAudioCopy v0.99pb5
#
DISCID=9c12ba1d
DTITLE=Various Artist - Blues From The Roundhouse
DYEAR=2009
DGENRE=Blues
TTITLE0=Alexis Korner's Breakdown Group - Leaving Blues
TTITLE1=Alexis Korner's Breakdown Group - Rotten Break
TTITLE2=Alexis Korner's Breakdown Group - Alberta
TTITLE3=Alexis Korner's Breakdown Group - Roundhouse Stomp
TTITLE4=Alexis Korner's Breakdown Group - Skip To My Lou
TTITLE5=Alexis Korner's Breakdown Group - Good Morning
TTITLE6=Alexis Korner's Breakdown Group - Boll Weevil
TTITLE7=Alexis Korner's Breakdown Group - Ella Speed
TTITLE8=Alexis Korner's Breakdown Group - Steamline Train
TTITLE9=Alexis Korner Skiffle Group - I Ain't Gonna Worry No More
TTITLE10=Alexis Korner Skiffle Group - County Jail
TTITLE11=Alexis Korner Skiffle Group - Kid Man
TTITLE12=Alexis Korner Skiffle Group - Easy Rider
TTITLE13=Alexis Korner's Blues Incorporated - Sail On
TTITLE14=Alexis Korner's Blues Incorporated - National Defence Blues
TTITLE15=Alexis Korner's Blues Incorporated - Go Down Sunshinel
TTITLE16=Alexis Korner's Blues Incorporated - Death Letter
TTITLE17=Ken Colyer's Skiffle Group - K C Moan
TTITLE18=Ken Colyer's Skiffle Group - Casey Jones
TTITLE19=Ken Colyer's Skiffle Group - Midnight Special
TTITLE20=Cyril Davis - K C Moan
TTITLE21=Ken Colyer's Skiffle Group - Take This Hammer
TTITLE22=Ken Colyer's Skiffle Group - Down By The Riverside
TTITLE23=Ken Colyer's Skiffle Group - Go Down Old Hannah
TTITLE24=Ken Colyer's Skiffle Group - Streamline Train
TTITLE25=Beryl Bryden's Backroom Skiffle - Kanas City Blues
TTITLE26=Beryl Bryden's Backroom Skiffle - Casey Jones
TTITLE27=Beryl Bryden's Backroom Skiffle - This Train
TTITLE28=Beryl Bryden's Backroom Skiffle - Rock Me
EXTD=
EXTT0=
EXTT1=
EXTT2=
EXTT3=
EXTT4=
EXTT5=
EXTT6=
EXTT7=
EXTT8=
EXTT9=
EXTT10=
EXTT11=
EXTT12=
EXTT13=
EXTT14=
EXTT15=
EXTT16=
EXTT17=
EXTT18=
EXTT19=
EXTT20=
EXTT21=
EXTT22=
EXTT23=
EXTT24=
EXTT25=
EXTT26=
EXTT27=
EXTT28=
PLAYORDER=
